<svg width="32" height="26" viewBox="0 0 32 26" fill="none" xmlns="http://www.w3.org/2000/svg">
<g clip-path="url(#clip0_73_1450)">
<path d="M9.09488 13.873C9.09488 14.263 9.13688 14.5792 9.21113 14.8105C9.29513 15.042 9.40063 15.295 9.54788 15.5685C9.59963 15.6525 9.62113 15.7365 9.62113 15.8107C9.62113 15.9152 9.55762 16.0207 9.42112 16.126L8.75787 16.5685C8.66312 16.631 8.56837 16.6632 8.48462 16.6632C8.37912 16.6632 8.27363 16.6105 8.16813 16.5157C8.02657 16.363 7.89968 16.1973 7.78912 16.0208C7.67195 15.8182 7.5632 15.611 7.46312 15.3995C6.64246 16.3683 5.61079 16.8527 4.36812 16.8527C3.48438 16.8527 2.77937 16.5997 2.26287 16.0947C1.74712 15.589 1.48438 14.9153 1.48438 14.0733C1.48438 13.1788 1.79988 12.4523 2.44263 11.9055C3.08413 11.3575 3.93663 11.084 5.02163 11.084C5.37913 11.084 5.74712 11.1152 6.13662 11.168C6.52662 11.2207 6.92688 11.3047 7.34788 11.3995V10.631C7.34788 9.831 7.17887 9.2735 6.85287 8.9475C6.51537 8.62125 5.94712 8.463 5.13662 8.463C4.76837 8.463 4.38963 8.505 3.99988 8.59975C3.61291 8.69194 3.23302 8.81166 2.86312 8.958C2.69412 9.03125 2.56813 9.07325 2.49488 9.09475C2.42088 9.11525 2.36813 9.126 2.32613 9.126C2.17863 9.126 2.10537 9.0205 2.10537 8.8V8.28425C2.10537 8.11525 2.12587 7.98925 2.17862 7.91525C2.23112 7.842 2.32613 7.76875 2.47363 7.6945C2.84196 7.505 3.28396 7.34708 3.79962 7.22075C4.31537 7.084 4.86312 7.02075 5.44212 7.02075C6.69412 7.02075 7.61012 7.30475 8.20012 7.87325C8.77912 8.4415 9.07312 9.30475 9.07312 10.463V13.873H9.09488ZM4.82137 15.4737C5.16812 15.4737 5.52637 15.4103 5.90538 15.2843C6.28438 15.1573 6.62113 14.926 6.90538 14.6105C7.07338 14.4105 7.20038 14.1895 7.26288 13.9367C7.32638 13.6838 7.36837 13.3792 7.36837 13.0205V12.5792C7.04953 12.5007 6.72641 12.4407 6.40062 12.3995C6.07215 12.3582 5.74143 12.3373 5.41038 12.337C4.70538 12.337 4.18963 12.4738 3.84188 12.758C3.49513 13.042 3.32638 13.4415 3.32638 13.968C3.32638 14.463 3.45238 14.8312 3.71588 15.084C3.96888 15.3467 4.33712 15.4737 4.82137 15.4737ZM13.2736 16.6105C13.0841 16.6105 12.9581 16.5792 12.8741 16.505C12.7891 16.4415 12.7159 16.295 12.6524 16.095L10.1789 7.958C10.1164 7.74725 10.0839 7.6105 10.0839 7.53625C10.0839 7.36825 10.1681 7.27375 10.3371 7.27375H11.3684C11.5684 7.27375 11.7051 7.30475 11.7794 7.379C11.8634 7.4415 11.9269 7.589 11.9894 7.789L13.7579 14.758L15.4004 7.78925C15.4524 7.57925 15.5159 7.44175 15.5996 7.37925C15.6846 7.3155 15.8321 7.2735 16.0216 7.2735H16.8634C17.0634 7.2735 17.2004 7.30475 17.2844 7.379C17.3684 7.4415 17.4426 7.589 17.4844 7.789L19.1476 14.842L20.9689 7.78925C21.0314 7.57925 21.1056 7.44175 21.1789 7.37925C21.2629 7.3155 21.4006 7.2735 21.5899 7.2735H22.5684C22.7374 7.2735 22.8321 7.3575 22.8321 7.53625C22.8321 7.58875 22.8214 7.64175 22.8106 7.70525C22.7999 7.76875 22.7794 7.85275 22.7374 7.96775L20.2004 16.1055C20.1369 16.3155 20.0636 16.4522 19.9786 16.5155C19.8946 16.5792 19.7579 16.6213 19.5791 16.6213H18.6741C18.4739 16.6213 18.3371 16.5887 18.2531 16.5157C18.1681 16.4415 18.0949 16.3047 18.0529 16.0947L16.4211 9.30475L14.7999 16.084C14.7474 16.295 14.6849 16.4317 14.5999 16.505C14.5156 16.5792 14.3684 16.6105 14.1789 16.6105H13.2736ZM26.7999 16.8947C26.2531 16.8947 25.7051 16.8313 25.1789 16.7052C24.6526 16.5792 24.2424 16.4415 23.9689 16.2843C23.7999 16.1895 23.6846 16.0843 23.6426 15.9893C23.601 15.8965 23.5794 15.7959 23.5791 15.6943V15.1572C23.5791 14.9367 23.6631 14.8312 23.8216 14.8312C23.8843 14.8312 23.9474 14.842 24.0109 14.8635C24.0734 14.884 24.1681 14.926 24.2734 14.968C24.6454 15.1316 25.0338 15.2553 25.4319 15.337C25.8526 15.421 26.2629 15.463 26.6846 15.463C27.3479 15.463 27.8634 15.3467 28.2209 15.1155C28.5791 14.884 28.7686 14.547 28.7686 14.1155C28.7686 13.8205 28.6739 13.5793 28.4846 13.379C28.2951 13.179 27.9366 13 27.4211 12.8312L25.8946 12.3575C25.1261 12.1152 24.5576 11.758 24.2111 11.2842C23.8636 10.8205 23.6846 10.3047 23.6846 9.758C23.6846 9.3155 23.7794 8.92583 23.9689 8.589C24.1566 8.25023 24.415 7.95582 24.7266 7.72575C25.0421 7.4845 25.4006 7.30475 25.8216 7.17875C26.2426 7.05275 26.6846 7 27.1476 7C27.3791 7 27.6211 7.01075 27.8526 7.042C28.0949 7.07325 28.3156 7.11525 28.5371 7.15725C28.7471 7.21 28.9474 7.26275 29.1369 7.32625C29.3264 7.38942 29.4739 7.45258 29.5794 7.51575C29.7269 7.59975 29.8321 7.68375 29.8946 7.77825C29.958 7.86308 29.9895 7.979 29.9894 8.126V8.621C29.9894 8.842 29.9054 8.958 29.7471 8.958C29.6631 8.958 29.5264 8.91525 29.3479 8.83125C28.7472 8.55775 28.0734 8.421 27.3264 8.421C26.7266 8.421 26.2531 8.51575 25.9269 8.716C25.5996 8.91525 25.4319 9.221 25.4319 9.6525C25.4319 9.9475 25.5371 10.2002 25.7471 10.3995C25.9581 10.5995 26.3479 10.8 26.9054 10.9785L28.4004 11.4523C29.1584 11.6945 29.7054 12.0312 30.0314 12.463C30.3574 12.8947 30.5159 13.3898 30.5159 13.9367C30.5159 14.3898 30.4209 14.8 30.2424 15.1572C30.0529 15.5157 29.7999 15.8312 29.4739 16.084C29.1476 16.3467 28.7579 16.5363 28.3059 16.674C27.8321 16.8205 27.3371 16.8947 26.7999 16.8947Z" fill="#252F3E"/>
<path d="M29.4994 18.8954C28.3914 18.9111 27.0834 19.1584 26.0941 19.8534C25.7884 20.0741 25.8411 20.3689 26.1781 20.3269C27.3051 20.1901 29.7881 19.8954 30.2306 20.4636C30.6731 21.0211 29.7366 23.3686 29.3149 24.4111C29.1889 24.7261 29.4624 24.8534 29.7464 24.6111C31.5989 23.0534 32.0834 19.8006 31.7044 19.3269C31.5151 19.0956 30.6074 18.8794 29.4994 18.8954ZM0.406898 19.5231C0.175148 19.5521 0.0701478 19.8321 0.314898 20.0534C4.4419 23.7789 9.90465 26.0214 15.9681 26.0214C20.2944 26.0214 25.3256 24.6639 28.7884 22.1064C29.3566 21.6844 28.8626 21.0429 28.2834 21.3054C24.3999 22.9479 20.1781 23.7479 16.3364 23.7479C10.6419 23.7479 5.1364 22.1796 0.673148 19.5896C0.575648 19.5319 0.484398 19.5136 0.407148 19.5231H0.406898Z" fill="#FF9900"/>
</g>
<defs>
<clipPath id="clip0_73_1450">
<rect width="32" height="26" fill="white"/>
</clipPath>
</defs>
</svg>
