<svg width="42" height="42" viewBox="0 0 42 42" fill="none" xmlns="http://www.w3.org/2000/svg">
<rect width="42" height="42" rx="21" fill="#F3F0EA"/>
<path d="M11.1 32.3997C9.975 31.2747 9.0935 29.9747 8.4555 28.4997C7.8175 27.0247 7.499 25.4997 7.5 23.9247C7.501 22.3497 7.801 20.7937 8.4 19.2567C8.999 17.7197 9.974 16.2757 11.325 14.9247C12.2 14.0497 13.2815 13.2997 14.5695 12.6747C15.8575 12.0497 17.3825 11.5562 19.1445 11.1942C20.9065 10.8322 22.919 10.6132 25.182 10.5372C27.445 10.4612 29.976 10.5487 32.775 10.7997C32.975 13.4497 33.0375 15.8872 32.9625 18.1122C32.8875 20.3372 32.681 22.3437 32.343 24.1317C32.005 25.9197 31.53 27.4817 30.918 28.8177C30.306 30.1537 29.55 31.2727 28.65 32.1747C27.325 33.4997 25.919 34.4687 24.432 35.0817C22.945 35.6947 21.426 36.0007 19.875 35.9997C18.25 35.9997 16.6625 35.6807 15.1125 35.0427C13.5625 34.4047 12.225 33.5237 11.1 32.3997ZM15.3 31.7997C16.025 32.2247 16.769 32.5312 17.532 32.7192C18.295 32.9072 19.076 33.0007 19.875 32.9997C21.025 32.9997 22.1625 32.7687 23.2875 32.3067C24.4125 31.8447 25.4875 31.1007 26.5125 30.0747C26.9625 29.6247 27.419 28.9932 27.882 28.1802C28.345 27.3672 28.745 26.3052 29.082 24.9942C29.419 23.6832 29.675 22.0957 29.85 20.2317C30.025 18.3677 30.05 16.1487 29.925 13.5747C28.7 13.5247 27.319 13.5062 25.782 13.5192C24.245 13.5322 22.7135 13.6507 21.1875 13.8747C19.6615 14.0987 18.2115 14.4612 16.8375 14.9622C15.4635 15.4632 14.3385 16.1507 13.4625 17.0247C12.3375 18.1497 11.5625 19.2622 11.1375 20.3622C10.7125 21.4622 10.5 22.5247 10.5 23.5497C10.5 25.0247 10.7815 26.3187 11.3445 27.4317C11.9075 28.5447 12.401 29.3257 12.825 29.7747C13.875 27.7747 15.2625 25.8557 16.9875 24.0177C18.7125 22.1797 20.725 20.6737 23.025 19.4997C21.225 21.0747 19.6565 22.8562 18.3195 24.8442C16.9825 26.8322 15.976 29.1507 15.3 31.7997Z" fill="black"/>
</svg>
