<svg width="42" height="42" viewBox="0 0 42 42" fill="none" xmlns="http://www.w3.org/2000/svg">
<rect width="42" height="42" rx="21" fill="#F3F0EA"/>
<g clip-path="url(#clip0_73_2116)">
<path d="M14.9997 13H17.9997C17.9997 13 17.9997 16 20.9997 16C23.9997 16 23.9997 13 23.9997 13H26.9997M26.9997 20V28.4C26.9997 28.5591 26.9365 28.7117 26.8239 28.8243C26.7114 28.9368 26.5588 29 26.3997 29H15.5997C15.4405 29 15.2879 28.9368 15.1754 28.8243C15.0629 28.7117 14.9997 28.5591 14.9997 28.4V20M26.9997 13L31.4427 14.777C31.5904 14.8361 31.7086 14.9516 31.7712 15.0978C31.8338 15.2441 31.8358 15.4093 31.7767 15.557L30.1507 19.623C30.1061 19.7343 30.0292 19.8297 29.93 19.8969C29.8307 19.9641 29.7135 20 29.5937 20H26.9997M14.9997 13L10.5567 14.777C10.4089 14.8361 10.2908 14.9516 10.2281 15.0978C10.1655 15.2441 10.1635 15.4093 10.2227 15.557L11.8487 19.623C11.8932 19.7343 11.9701 19.8297 12.0694 19.8969C12.1687 19.9641 12.2858 20 12.4057 20H14.9997" stroke="black" stroke-width="1.5" stroke-linecap="round" stroke-linejoin="round"/>
</g>
<defs>
<clipPath id="clip0_73_2116">
<rect width="24" height="24" fill="white" transform="translate(9 9)"/>
</clipPath>
</defs>
</svg>
