<svg width="42" height="42" viewBox="0 0 42 42" fill="none" xmlns="http://www.w3.org/2000/svg">
<rect width="42" height="42" rx="21" fill="#F3F0EA"/>
<path d="M19 14L21 12M17 25L25 17M21 30L23 28M25.5 28C26.163 28 26.7989 27.7366 27.2678 27.2678C27.7366 26.7989 28 26.163 28 25.5C28 24.837 27.7366 24.2011 27.2678 23.7322C26.7989 23.2634 26.163 23 25.5 23C24.837 23 24.2011 23.2634 23.7322 23.7322C23.2634 24.2011 23 24.837 23 25.5C23 26.163 23.2634 26.7989 23.7322 27.2678C24.2011 27.7366 24.837 28 25.5 28ZM16.5 19C17.163 19 17.7989 18.7366 18.2678 18.2678C18.7366 17.7989 19 17.163 19 16.5C19 15.837 18.7366 15.2011 18.2678 14.7322C17.7989 14.2634 17.163 14 16.5 14C15.837 14 15.2011 14.2634 14.7322 14.7322C14.2634 15.2011 14 15.837 14 16.5C14 17.163 14.2634 17.7989 14.7322 18.2678C15.2011 18.7366 15.837 19 16.5 19ZM14.5 30C15.163 30 15.7989 29.7366 16.2678 29.2678C16.7366 28.7989 17 28.163 17 27.5C17 26.837 16.7366 26.2011 16.2678 25.7322C15.7989 25.2634 15.163 25 14.5 25C13.837 25 13.2011 25.2634 12.7322 25.7322C12.2634 26.2011 12 26.837 12 27.5C12 28.163 12.2634 28.7989 12.7322 29.2678C13.2011 29.7366 13.837 30 14.5 30ZM27.5 17C28.163 17 28.7989 16.7366 29.2678 16.2678C29.7366 15.7989 30 15.163 30 14.5C30 13.837 29.7366 13.2011 29.2678 12.7322C28.7989 12.2634 28.163 12 27.5 12C26.837 12 26.2011 12.2634 25.7322 12.7322C25.2634 13.2011 25 13.837 25 14.5C25 15.163 25.2634 15.7989 25.7322 16.2678C26.2011 16.7366 26.837 17 27.5 17Z" stroke="black" stroke-width="2" stroke-linecap="round" stroke-linejoin="round"/>
</svg>
