<svg width="42" height="42" viewBox="0 0 42 42" fill="none" xmlns="http://www.w3.org/2000/svg">
<rect width="42" height="42" rx="21" fill="#F3F0EA"/>
<path d="M21 31C26.5228 31 31 26.5228 31 21C31 15.4772 26.5228 11 21 11C15.4772 11 11 15.4772 11 21C11 26.5228 15.4772 31 21 31Z" stroke="black" stroke-width="1.5" stroke-linecap="round" stroke-linejoin="round"/>
<path d="M12 16.592C18 18.32 19.5 14 28 14" stroke="black" stroke-width="1.5" stroke-linecap="round" stroke-linejoin="round"/>
<path d="M27 14C22 14.499 20 21 11 21C15.444 21 21.719 30.145 27 28.88" stroke="black" stroke-width="1.5" stroke-linecap="round" stroke-linejoin="round"/>
<path d="M13 27C19.5 27 23.686 19 30 19" stroke="black" stroke-width="1.5" stroke-linecap="round" stroke-linejoin="round"/>
</svg>
