<svg width="32" height="13" viewBox="0 0 32 13" fill="none" xmlns="http://www.w3.org/2000/svg">
<g clip-path="url(#clip0_73_1457)">
<path d="M22.6831 3.50883C23.5628 3.50883 24.2426 3.75348 24.7625 4.24276C25.2823 4.73198 25.5222 5.38434 25.5222 6.19977V10.1138H24.4025V9.21692H24.3625C23.8827 9.95084 23.2029 10.3178 22.4032 10.3178C21.7233 10.3178 21.1235 10.1139 20.6437 9.7062C20.2038 9.29848 19.9239 8.7277 19.9239 8.11612C19.9239 7.46374 20.1638 6.9337 20.6437 6.52598C21.1235 6.11826 21.8033 5.95519 22.6031 5.95519C23.3228 5.95519 23.8827 6.07754 24.3225 6.36291V6.07754C24.3225 5.69698 24.1832 5.31647 23.9045 5.06851L23.8427 5.01747C23.5228 4.73204 23.1229 4.56897 22.6831 4.56897C22.0033 4.56897 21.4834 4.85438 21.1235 5.42519L20.0839 4.7727C20.7237 3.91649 21.5634 3.50883 22.6831 3.50883ZM17.0448 0.736328C17.7623 0.736328 18.4442 0.990912 18.9894 1.46567L19.0842 1.5517C19.644 2.04098 19.9239 2.77491 19.9239 3.54955C19.9239 4.3242 19.644 5.01734 19.0842 5.54735C18.5244 6.07735 17.8446 6.36278 17.0448 6.36278L15.1255 6.322V10.1138H13.9258V0.736328H17.0448ZM22.843 6.93363C22.3631 6.93363 21.9633 7.05594 21.6434 7.30056C21.3235 7.5044 21.1635 7.78978 21.1635 8.15672C21.1635 8.48293 21.3235 8.76829 21.5634 8.93143C21.8433 9.13528 22.1632 9.25757 22.4832 9.25757C22.931 9.25757 23.3788 9.07997 23.7292 8.75797L23.8027 8.68678C24.2026 8.31985 24.4025 7.87135 24.4025 7.38207C24.0427 7.09671 23.5228 6.93357 22.843 6.93357M17.1249 1.87784H15.1255V5.13976H17.1249C17.5647 5.13976 18.0046 4.97669 18.2845 4.65054C18.9243 4.03897 18.9243 3.01968 18.3245 2.40804L18.2845 2.36725C17.9646 2.04111 17.5647 1.83725 17.1248 1.87803M32.0002 3.71269L28.0414 12.9679H26.8418L28.3213 9.74692L25.7221 3.75348H27.0017L28.8811 8.36064H28.9211L30.7605 3.75348H32.0002V3.71269Z" fill="#2A2A2A"/>
<path d="M10.3664 5.50607C10.3664 5.13914 10.3264 4.7722 10.2864 4.40527H5.28809V6.48464H8.12715C8.00721 7.13693 7.64734 7.7485 7.08752 8.1155V9.46093H8.80696C9.80665 8.52321 10.3665 7.13693 10.3665 5.50613" fill="#4285F4"/>
<path d="M5.28881 10.7659C6.72831 10.7659 7.92794 10.2766 8.80769 9.46119L7.08825 8.11575C6.60838 8.4419 6.00856 8.64576 5.28881 8.64576C3.92919 8.64576 2.72956 7.70804 2.32969 6.40332H0.570312V7.78954C1.49 9.62426 3.28944 10.7659 5.28881 10.7659Z" fill="#34A853"/>
<path d="M2.32923 6.40308C2.08936 5.75073 2.08936 5.01686 2.32923 4.32372V2.9375H0.569859C-0.189953 4.44607 -0.189953 6.24001 0.569859 7.7893L2.32923 6.40308Z" fill="#FBBC04"/>
<path d="M5.28794 2.12234C6.04769 2.12234 6.76744 2.40776 7.32731 2.93777L8.84681 1.38847C7.88706 0.491473 6.6075 -0.0385322 5.32788 0.00218836C3.3285 0.00218836 1.48913 1.14383 0.609375 2.97855L2.36881 4.36477C2.72869 3.06006 3.92831 2.12234 5.28794 2.12234Z" fill="#EA4335"/>
</g>
<defs>
<clipPath id="clip0_73_1457">
<rect width="32" height="13" fill="white"/>
</clipPath>
</defs>
</svg>
