<svg width="32" height="13" viewBox="0 0 32 13" fill="none" xmlns="http://www.w3.org/2000/svg">
<path d="M5.84695 1.66985C5.47195 2.10729 4.87182 2.45244 4.27176 2.40309C4.19676 1.81162 4.49051 1.18306 4.83432 0.794848C5.20932 0.345085 5.8657 0.0246445 6.39701 0C6.45951 0.616175 6.2157 1.22003 5.84695 1.66985ZM6.39082 2.52021C5.52195 2.47092 4.77814 3.00694 4.36557 3.00694C3.94682 3.00694 3.31545 2.54486 2.62789 2.55718C1.73407 2.5695 0.9027 3.06855 0.446387 3.86346C-0.491238 5.45322 0.202637 7.80708 1.10895 9.10105C1.55276 9.74187 2.08407 10.4443 2.78414 10.4197C3.44676 10.395 3.70926 9.99453 4.50939 9.99453C5.3157 9.99453 5.54701 10.4197 6.24707 10.4073C6.97214 10.395 7.42845 9.76657 7.87226 9.12569C8.37851 8.39862 8.58482 7.68996 8.59732 7.653C8.58482 7.64067 7.1972 7.11698 7.1847 5.53948C7.1722 4.22087 8.27857 3.59237 8.32857 3.55541C7.70345 2.64344 6.72839 2.54486 6.39082 2.52021ZM11.4102 0.733237V10.3396H12.9228V7.05536H15.0168C16.9295 7.05536 18.2734 5.7614 18.2734 3.88817C18.2734 2.015 16.9545 0.733299 15.0668 0.733299L11.4102 0.733237ZM12.9228 1.99029H14.6668C15.9794 1.99029 16.7295 2.6804 16.7295 3.89427C16.7295 5.10814 15.9794 5.80447 14.6605 5.80447H12.9228V1.99029ZM21.0362 10.4135C21.9863 10.4135 22.8676 9.93909 23.2677 9.1873H23.2989V10.3396H24.6991V5.55796C24.6991 4.17158 23.574 3.27809 21.8425 3.27809C20.2361 3.27809 19.0484 4.18391 19.0047 5.42858H20.3674C20.4799 4.83705 21.0361 4.44883 21.7988 4.44883C22.7239 4.44883 23.2427 4.87401 23.2427 5.6566V6.18646L21.3549 6.29736C19.5985 6.4021 18.6484 7.11075 18.6484 8.34317C18.6484 9.58784 19.6298 10.4135 21.0362 10.4135ZM21.4424 9.27356C20.6362 9.27356 20.1236 8.89157 20.1236 8.30614C20.1236 7.70235 20.6174 7.3511 21.5613 7.29565L23.2427 7.19091V7.73309C23.2427 8.63274 22.4676 9.27356 21.4425 9.27356M26.5681 12.9522C28.0433 12.9522 28.7371 12.3977 29.3434 10.7155L31.9999 3.37051H30.4623L28.6808 9.04554H28.6496L26.8681 3.37051H25.2867L27.8494 10.3642L27.7119 10.7894C27.4807 11.5103 27.1056 11.7876 26.4368 11.7876C26.3181 11.7876 26.0868 11.7753 25.993 11.763V12.9152C26.0805 12.9399 26.4555 12.9522 26.5681 12.9522" fill="black"/>
</svg>
